<?xml version="1.0" standalone="no"?>
<!DOCTYPE svg PUBLIC "-//W3C//DTD SVG 20010904//EN"
 "http://www.w3.org/TR/2001/REC-SVG-20010904/DTD/svg10.dtd">
<svg version="1.0" xmlns="http://www.w3.org/2000/svg"
 width="500.000000pt" height="500.000000pt" viewBox="0 0 500.000000 500.000000"
 preserveAspectRatio="xMidYMid meet">
<metadata>
Created by potrace 1.14, written by Peter Selinger 2001-2017
</metadata>
<g transform="translate(0.000000,500.000000) scale(0.100000,-0.100000)"
fill="#000000" stroke="none">
<path d="M0 2500 l0 -2500 2500 0 2500 0 0 2500 0 2500 -2500 0 -2500 0 0
-2500z m4670 20 l0 -2190 -2190 0 -2190 0 0 2190 0 2190 2190 0 2190 0 0
-2190z"/>
<path d="M520 2520 l0 -1960 1960 0 1960 0 0 1960 0 1960 -1960 0 -1960 0 0
-1960z m1275 1259 c49 -44 57 -81 53 -256 -3 -139 -5 -154 -26 -182 l-23 -31
26 0 25 0 0 -222 c0 -250 -5 -273 -69 -315 -32 -22 -43 -23 -217 -23 l-184 0
0 530 0 530 190 0 189 0 36 -31z m586 4 c59 -50 59 -47 59 -563 l0 -470 -85 0
-85 0 0 226 0 226 -62 -34 -63 -35 -3 -191 -2 -192 -86 0 -85 0 3 483 c3 536
1 514 71 557 28 17 51 20 169 20 134 0 137 -1 169 -27z m349 -8 l0 -35 29 32
c29 32 32 33 110 33 75 0 82 -2 110 -29 17 -17 36 -46 41 -65 6 -21 10 -225
10 -498 l0 -463 -85 0 -85 0 0 450 0 450 -65 0 -65 0 0 -450 0 -450 -85 0 -85
0 0 530 0 530 85 0 85 0 0 -35z m811 20 c16 -9 39 -30 49 -48 19 -30 20 -53
20 -466 0 -417 -1 -435 -20 -466 -35 -57 -66 -65 -264 -65 l-176 0 0 530 0
530 180 0 c144 0 187 -3 211 -15z m-2258 -1276 c12 -6 32 -23 44 -37 l22 -26
20 26 c32 41 69 50 180 46 90 -3 102 -5 126 -28 56 -52 55 -40 55 -555 l0
-475 -85 0 -85 0 0 450 0 450 -65 0 -65 0 0 -450 0 -450 -85 0 -85 0 0 450 0
450 -65 0 -65 0 0 -450 0 -450 -80 0 -80 0 0 481 c0 471 0 482 21 515 32 53
61 63 172 64 54 0 108 -5 120 -11z m983 -19 c54 -50 54 -51 54 -560 l0 -470
-85 0 -85 0 0 226 0 225 -62 -33 -63 -33 -3 -192 -2 -193 -86 0 -85 0 3 478
c3 530 2 520 71 563 29 18 47 19 174 17 135 -3 143 -4 169 -28z m644 -50 l0
-80 -85 0 -85 0 0 -450 0 -450 -85 0 -85 0 0 450 0 450 -80 0 -80 0 0 80 0 80
250 0 250 0 0 -80z m496 50 c37 -35 54 -80 54 -147 l0 -59 -75 -37 c-42 -20
-80 -37 -85 -37 -6 0 -10 33 -10 75 l0 75 -65 0 -65 0 0 -370 0 -370 65 0 65
0 0 65 0 65 80 40 c44 22 82 40 85 40 3 0 5 -57 5 -127 0 -146 -11 -182 -69
-220 -31 -21 -46 -23 -158 -23 -144 0 -180 11 -215 69 -23 36 -23 37 -23 461
0 473 -1 468 68 511 29 18 47 19 174 17 135 -3 143 -4 169 -28z m324 -196 c0
-124 3 -224 8 -222 4 2 33 17 65 33 l57 29 0 193 0 193 85 0 85 0 0 -530 0
-530 -85 0 -85 0 0 246 0 245 -62 -35 -63 -35 -3 -211 -2 -210 -80 0 -80 0 0
530 0 530 80 0 80 0 0 -226z"/>
<path d="M1550 3510 l0 -140 65 32 65 32 0 108 0 108 -65 0 -65 0 0 -140z"/>
<path d="M1608 3209 l-58 -29 0 -135 0 -135 65 0 65 0 0 165 c0 91 -3 165 -7
165 -5 -1 -34 -14 -65 -31z"/>
<path d="M2140 3484 l0 -165 63 33 62 33 3 133 3 132 -66 0 -65 0 0 -166z"/>
<path d="M3320 3280 l0 -370 65 0 65 0 0 370 0 370 -65 0 -65 0 0 -370z"/>
<path d="M2020 2205 l0 -165 65 32 65 32 0 133 0 133 -65 0 -65 0 0 -165z"/>
</g>
</svg>
